<?xml version="1.0" encoding="UTF-8" standalone="no"?>
<svg width="256px" height="256px" viewBox="0 0 256 256" version="1.1" xmlns="http://www.w3.org/2000/svg" xmlns:xlink="http://www.w3.org/1999/xlink">
    <!-- Generator: Sketch 41.2 (35397) - http://www.bohemiancoding.com/sketch -->
    <title>Slice 1</title>
    <desc>Created with Sketch.</desc>
    <defs></defs>
    <g id="Page-1" stroke="none" stroke-width="1" fill="none" fill-rule="evenodd">
        <g id="icon">
            <g id="Page-1">
                <circle id="Oval" fill="#713DA7" cx="128" cy="128" r="128"></circle>
                <path d="M102.55,160.75 C107.650025,160.75 111.649985,159.825009 114.55,157.975 C117.450014,156.124991 118.9,153.25002 118.9,149.35 L118.9,149.05 C118.9,145.549982 117.550013,142.77501 114.85,140.725 C112.149986,138.67499 107.80003,137.65 101.8,137.65 L75.1,137.65 L75.1,160.75 L102.55,160.75 Z M96.4,118.45 C101.500025,118.45 105.549985,117.575009 108.55,115.825 C111.550015,114.074991 113.05,111.25002 113.05,107.35 L113.05,107.05 C113.05,103.549982 111.750013,100.875009 109.15,99.025 C106.549987,97.1749908 102.800024,96.25 97.9,96.25 L75.1,96.25 L75.1,118.45 L96.4,118.45 Z M132.09077,89.328247 C131.160042,87.9058673 130.063119,86.5631194 128.8,85.3 C122.599969,79.099969 113.450061,76 101.35,76 L52.6,76 L52.6,181 L102.55,181 C108.45003,181 113.824976,180.400006 118.675,179.2 C123.525024,177.999994 127.674983,176.200012 131.125,173.8 C132.543819,172.812995 133.827329,171.724522 134.975537,170.534574 C138.923726,173.803843 143.381856,176.492303 148.35,178.6 C154.950033,181.400014 162.099961,182.8 169.8,182.8 C174.900025,182.8 179.499979,182.375004 183.6,181.525 C187.70002,180.674996 191.474983,179.425008 194.925,177.775 C198.375017,176.124992 201.549986,174.150012 204.45,171.85 C207.350015,169.549988 210.149986,166.950015 212.85,164.05 L198.15,149.2 C194.049979,153.000019 189.925021,155.999989 185.775,158.2 C181.624979,160.400011 176.55003,161.5 170.55,161.5 C166.049977,161.5 161.925019,160.625009 158.175,158.875 C154.424981,157.124991 151.225013,154.750015 148.575,151.75 C145.924987,148.749985 143.850007,145.25002 142.35,141.25 C140.849992,137.24998 140.1,133.000023 140.1,128.5 L140.1,128.2 C140.1,123.699977 140.849992,119.47502 142.35,115.525 C143.850007,111.57498 145.949987,108.100015 148.65,105.1 C151.350014,102.099985 154.574981,99.7500085 158.325,98.05 C162.075019,96.3499915 166.149978,95.5 170.55,95.5 C175.850027,95.5 180.624979,96.5499895 184.875,98.65 C189.125021,100.750011 193.299979,103.649981 197.4,107.35 L212.1,90.4 C209.699988,87.999988 207.100014,85.80001 204.3,83.8 C201.499986,81.79999 198.450016,80.100007 195.15,78.7 C191.849984,77.299993 188.17502,76.200004 184.125,75.4 C180.07498,74.599996 175.600025,74.2 170.7,74.2 C162.599959,74.2 155.200034,75.6249858 148.5,78.475 C142.18674,81.1604914 136.717044,84.7782077 132.09077,89.328247 Z" id="Combined-Shape" fill="#FFFFFF"></path>
            </g>
        </g>
    </g>
</svg>