<?xml version="1.0" encoding="UTF-8"?>
<svg width="512px" height="512px" viewBox="0 0 512 512" version="1.1" xmlns="http://www.w3.org/2000/svg" xmlns:xlink="http://www.w3.org/1999/xlink">
    <title>Artboard</title>
    <g id="Artboard" stroke="none" stroke-width="1" fill="none" fill-rule="evenodd">
        <g id="icon" fill-rule="nonzero">
            <circle id="Oval" fill="#713DA7" cx="256" cy="256" r="256"></circle>
            <path d="M205.1,321.5 C215.30005,321.5 223.29997,319.650018 229.1,315.95 C234.900028,312.249982 237.8,306.50004 237.8,298.7 L237.8,298.1 C237.8,291.099964 235.100026,285.55002 229.7,281.45 C224.299972,277.34998 215.60006,275.3 203.6,275.3 L150.2,275.3 L150.2,321.5 L205.1,321.5 Z M341.4,148.4 C351.20005,148.4 360.14996,149.199992 368.25,150.8 C376.35004,152.4 383.699968,154.599986 390.3,157.4 C396.900032,160.200014 402.999972,163.59998 408.6,167.6 C414.200028,171.60002 419.399976,175.999976 424.2,180.8 L424.2,180.8 L394.8,214.7 C386.599958,207.299962 378.250042,201.500022 369.75,197.3 C361.249958,193.099979 351.700054,191 341.1,191 C332.299956,191 324.150038,192.699983 316.65,196.1 C309.149962,199.500017 302.700028,204.19997 297.3,210.2 C291.899974,216.20003 287.700014,223.14996 284.7,231.05 C281.699984,238.95004 280.2,247.399954 280.2,256.4 L280.2,256.4 L280.2,257 C280.2,266.000046 281.699984,274.49996 284.7,282.5 C287.700014,290.50004 291.849974,297.49997 297.15,303.5 C302.450026,309.50003 308.849962,314.249982 316.35,317.75 C323.850038,321.250018 332.099954,323 341.1,323 C353.10006,323 363.249958,320.800022 371.55,316.4 C379.850042,311.999978 388.099958,306.000038 396.3,298.4 L396.3,298.4 L425.7,328.1 C420.299972,333.90003 414.70003,339.099976 408.9,343.7 C403.099972,348.300024 396.750034,352.249984 389.85,355.55 C382.949966,358.850016 375.40004,361.349992 367.2,363.05 C358.999958,364.750008 349.80005,365.6 339.6,365.6 C324.199922,365.6 309.900066,362.800028 296.7,357.2 C286.763712,352.984606 277.847452,347.607686 269.951074,341.069148 C267.654658,343.449044 265.087638,345.62599 262.25,347.6 C255.349966,352.400024 247.050048,355.999988 237.35,358.4 C227.649952,360.800012 216.90006,362 205.1,362 L205.1,362 L105.2,362 L105.2,152 L202.7,152 C226.900122,152 245.199938,158.199938 257.6,170.6 C260.126238,173.126239 262.320084,175.811735 264.18154,178.656494 C273.434088,169.556415 284.37348,162.320983 297,156.95 C310.400068,151.249972 325.199918,148.4 341.4,148.4 Z M195.8,192.5 L150.2,192.5 L150.2,236.9 L192.8,236.9 C203.00005,236.9 211.09997,235.150018 217.1,231.65 C223.10003,228.149982 226.1,222.50004 226.1,214.7 L226.1,214.1 C226.1,207.099964 223.500026,201.750018 218.3,198.05 C213.099974,194.349982 205.600048,192.5 195.8,192.5 Z" id="Combined-Shape" fill="#FFFFFF"></path>
        </g>
    </g>
</svg>